# xmcd CD database file
#
# Track frame offsets:
#	150
#	13024
#	26064
#	38399
#	51446
#	64428
#	77954
#	90884
#	103390
#	115171
#	127132
#	139803
#	150901
#	163541
#	176118
#
# Disc length: 2501 seconds
#
# Revision: 4
# Processed by: cddbd v1.5.2PL0 Copyright (c) Steve Scherf et al.
# Submitted via: CDex 1.70beta2
#
DISCID=c709c30f
DTITLE=Kokomo Arnold - Midnight Blues - Disc 2
DYEAR=1900
DGENRE=Blues
TTITLE0=Neck Bone Blues
TTITLE1=Buddie Brown Blues
TTITLE2=Rocky Road Blues
TTITLE3=Head Cuttin' Blues
TTITLE4=Broke Man Blues
TTITLE5=Back On The Job
TTITLE6=Shine On, Moon
TTITLE7=Your Ways And Actions
TTITLE8=Tired Of Runnin' From Door To Door
TTITLE9=My Well Is Dry
TTITLE10=Midnight Blues
TTITLE11=Goin' Down in Galilee
TTITLE12=Bad Luck Blues
TTITLE13=Kid Man Blues
TTITLE14=Something's Hot
EXTD=1- 3: Chicago, October 23, 1937 - Kokomo Arnold: vocals, guitar\n 4- 7: Chicago, November 3, 1937 - Kokomo Arnold: vocals, guitar, Peetie Wheatstraw: piano\n 8-10: New York, May 11, 1937 - Kokomo Arnold: vocals, guitar\n11-15: New York, May 12, 1937
EXTD=Kokomo Arnold: vocals, guitar\n\nAll songs by James Arnold
EXTT0=
EXTT1=
EXTT2=
EXTT3=
EXTT4=
EXTT5=
EXTT6=
EXTT7=
EXTT8=
EXTT9=
EXTT10=
EXTT11=
EXTT12=
EXTT13=
EXTT14=
PLAYORDER=
